<svg width="43" height="43" viewBox="0 0 43 43" fill="none" xmlns="http://www.w3.org/2000/svg">
<path d="M21.5 2.2395C22.2421 2.2395 22.8438 2.84113 22.8438 3.58325V5.37492C22.8438 6.11704 22.2421 6.71867 21.5 6.71867C20.7579 6.71867 20.1562 6.11704 20.1562 5.37492V3.58325C20.1562 2.84113 20.7579 2.2395 21.5 2.2395Z" fill="#81D8D0"/>
<path fill-rule="evenodd" clip-rule="evenodd" d="M11.1979 21.5001C11.1979 15.8104 15.8103 11.198 21.5 11.198C27.1896 11.198 31.8021 15.8104 31.8021 21.5001C31.8021 27.1897 27.1896 31.8022 21.5 31.8022C15.8103 31.8022 11.1979 27.1897 11.1979 21.5001ZM21.5 13.8855C17.2946 13.8855 13.8854 17.2947 13.8854 21.5001C13.8854 25.7055 17.2946 29.1147 21.5 29.1147C25.7054 29.1147 29.1146 25.7055 29.1146 21.5001C29.1146 17.2947 25.7054 13.8855 21.5 13.8855Z" fill="#81D8D0"/>
<path d="M9.78124 7.88088C9.25646 7.35611 8.40565 7.35611 7.88089 7.88088C7.35611 8.40565 7.35611 9.25646 7.88089 9.78124L9.14778 11.0481C9.67256 11.5729 10.5234 11.5729 11.0481 11.0481C11.5729 10.5234 11.5729 9.67254 11.0481 9.14778L9.78124 7.88088Z" fill="#81D8D0"/>
<path d="M40.7604 21.5C40.7604 22.2421 40.1588 22.8438 39.4167 22.8438H37.625C36.8829 22.8438 36.2812 22.2421 36.2812 21.5C36.2812 20.7579 36.8829 20.1562 37.625 20.1562H39.4167C40.1588 20.1562 40.7604 20.7579 40.7604 21.5Z" fill="#81D8D0"/>
<path d="M35.1192 9.78124C35.644 9.25646 35.644 8.40565 35.1192 7.88089C34.5944 7.35611 33.7435 7.35611 33.2188 7.88089L31.9519 9.14778C31.4271 9.67256 31.4271 10.5234 31.9519 11.0481C32.4767 11.5729 33.3275 11.5729 33.8523 11.0481L35.1192 9.78124Z" fill="#81D8D0"/>
<path d="M21.5 36.2812C22.2421 36.2812 22.8438 36.8829 22.8438 37.625V39.4167C22.8438 40.1588 22.2421 40.7604 21.5 40.7604C20.7579 40.7604 20.1562 40.1588 20.1562 39.4167V37.625C20.1562 36.8829 20.7579 36.2812 21.5 36.2812Z" fill="#81D8D0"/>
<path d="M33.8523 31.9519C33.3275 31.4272 32.4768 31.4272 31.9521 31.9519C31.4273 32.4767 31.4273 33.3276 31.9521 33.8524L33.2189 35.1192C33.7437 35.644 34.5944 35.644 35.1192 35.1192C35.644 34.5945 35.644 33.7436 35.1192 33.2188L33.8523 31.9519Z" fill="#81D8D0"/>
<path d="M6.71873 21.5C6.71873 22.2421 6.11711 22.8438 5.37498 22.8438H3.58331C2.84119 22.8438 2.23956 22.2421 2.23956 21.5C2.23956 20.7579 2.84119 20.1562 3.58331 20.1562H5.37498C6.11711 20.1562 6.71873 20.7579 6.71873 21.5Z" fill="#81D8D0"/>
<path d="M11.048 33.8524C11.5728 33.3276 11.5728 32.4767 11.048 31.9519C10.5232 31.4272 9.67242 31.4272 9.14766 31.9519L7.88075 33.2188C7.35599 33.7436 7.35599 34.5945 7.88075 35.1192C8.40551 35.644 9.25634 35.644 9.7811 35.1192L11.048 33.8524Z" fill="#81D8D0"/>
</svg>
