<svg width="64" height="64" viewBox="0 0 64 64" fill="none" xmlns="http://www.w3.org/2000/svg">
<rect x="0.108109" width="63.5676" height="63.5676" rx="31.7838" fill="url(#paint0_radial_212_635)"/>
<path d="M31.8919 18.7641C36.1042 18.7641 36.6786 18.7641 38.4018 18.7641C39.9336 18.7641 40.6994 19.1471 41.2739 19.3385C42.0397 19.7215 42.6141 19.9129 43.1885 20.4873C43.7629 21.0617 44.1459 21.6361 44.3374 22.402C44.5288 22.9764 44.7203 23.7423 44.9118 25.2741C44.9118 26.9973 44.9118 27.3802 44.9118 31.784C44.9118 36.1878 44.9118 36.5707 44.9118 38.2939C44.9118 39.8257 44.5288 40.5915 44.3374 41.1659C43.9544 41.9318 43.7629 42.5062 43.1885 43.0806C42.6141 43.655 42.0397 44.038 41.2739 44.2294C40.6994 44.4209 39.9336 44.6124 38.4018 44.8038C36.6786 44.8038 36.2957 44.8038 31.8919 44.8038C27.4881 44.8038 27.1052 44.8038 25.382 44.8038C23.8502 44.8038 23.0843 44.4209 22.5099 44.2294C21.7441 43.8465 21.1697 43.655 20.5952 43.0806C20.0208 42.5062 19.6379 41.9318 19.4464 41.1659C19.255 40.5915 19.0635 39.8257 18.872 38.2939C18.872 36.5707 18.872 36.1878 18.872 31.784C18.872 27.3802 18.872 26.9973 18.872 25.2741C18.872 23.7423 19.255 22.9764 19.4464 22.402C19.8294 21.6361 20.0208 21.0617 20.5952 20.4873C21.1697 19.9129 21.7441 19.53 22.5099 19.3385C23.0843 19.1471 23.8502 18.9556 25.382 18.7641C27.1052 18.7641 27.6796 18.7641 31.8919 18.7641ZM31.8919 15.8921C27.4881 15.8921 27.1052 15.8921 25.382 15.8921C23.6587 15.8921 22.5099 16.275 21.5526 16.658C20.5952 17.0409 19.6379 17.6153 18.6806 18.5727C17.7232 19.53 17.3403 20.2959 16.7659 21.4447C16.3829 22.402 16.1915 23.5508 16 25.2741C16 26.9973 16 27.5717 16 31.784C16 36.1878 16 36.5707 16 38.2939C16 40.0171 16.3829 41.1659 16.7659 42.1233C17.1488 43.0806 17.7232 44.038 18.6806 44.9953C19.6379 45.9527 20.4038 46.3356 21.5526 46.91C22.5099 47.2929 23.6587 47.4844 25.382 47.6759C27.1052 47.6759 27.6796 47.6759 31.8919 47.6759C36.1042 47.6759 36.6786 47.6759 38.4018 47.6759C40.125 47.6759 41.2739 47.2929 42.2312 46.91C43.1885 46.5271 44.1459 45.9527 45.1032 44.9953C46.0606 44.038 46.4435 43.2721 47.0179 42.1233C47.4009 41.1659 47.5923 40.0171 47.7838 38.2939C47.7838 36.5707 47.7838 35.9963 47.7838 31.784C47.7838 27.5717 47.7838 26.9973 47.7838 25.2741C47.7838 23.5508 47.4009 22.402 47.0179 21.4447C46.635 20.4873 46.0606 19.53 45.1032 18.5727C44.1459 17.6153 43.38 17.2324 42.2312 16.658C41.2739 16.275 40.125 16.0836 38.4018 15.8921C36.6786 15.8921 36.2957 15.8921 31.8919 15.8921Z" fill="white"/>
<path d="M31.8919 23.5508C27.2966 23.5508 23.6587 27.1887 23.6587 31.784C23.6587 36.3792 27.2966 40.0171 31.8919 40.0171C36.4871 40.0171 40.125 36.3792 40.125 31.784C40.125 27.1887 36.4871 23.5508 31.8919 23.5508ZM31.8919 37.1451C29.0199 37.1451 26.5308 34.8475 26.5308 31.784C26.5308 28.912 28.8284 26.4229 31.8919 26.4229C34.7639 26.4229 37.253 28.7205 37.253 31.784C37.253 34.656 34.7639 37.1451 31.8919 37.1451Z" fill="white"/>
<path d="M40.3165 25.2741C41.374 25.2741 42.2312 24.4168 42.2312 23.3594C42.2312 22.3019 41.374 21.4447 40.3165 21.4447C39.2591 21.4447 38.4018 22.3019 38.4018 23.3594C38.4018 24.4168 39.2591 25.2741 40.3165 25.2741Z" fill="white"/>
<defs>
<radialGradient id="paint0_radial_212_635" cx="0" cy="0" r="1" gradientUnits="userSpaceOnUse" gradientTransform="translate(64.9545 1.29122) scale(146.796)">
<stop stop-color="#F9ED32"/>
<stop offset="0.36" stop-color="#EE2A7B"/>
<stop offset="0.44" stop-color="#D22A8A"/>
<stop offset="0.6" stop-color="#8B2AB2"/>
<stop offset="0.83" stop-color="#1B2AF0"/>
<stop offset="0.88" stop-color="#002AFF"/>
</radialGradient>
</defs>
</svg>
