<svg width="4490" height="1414" viewBox="0 0 4490 1414" fill="none" xmlns="http://www.w3.org/2000/svg">
<path d="M542.094 664.415H113.032V903.743H481.685V1004.67H113.032V1413.25H0V564.646H542.094V664.415Z" fill="white"/>
<path d="M1494.07 1413.25H1376.86L1295.69 1182.57H937.128L856.102 1413.25H744.368L1045.55 585.695H1192.32L1494.07 1413.25ZM1261.81 1088.14L1116.77 681.859L971.153 1088.14H1261.81Z" fill="white"/>
<path d="M1813.56 529.912H1921.4V1250.78L2296.26 529.912H2475.18V1413.26H2367.33V623.048L1955.72 1413.26H1812.99L1813.56 529.912Z" fill="white"/>
<path d="M3434.22 1413.26H3291.2L2879.29 635.59V1412.98H2771.3V544.328H2950.37L3326.23 1253.95V544.328H3434.22V1413.26Z" fill="white"/>
<path d="M2025.06 425.374H2016.84C2014.24 425.374 2011.07 425.374 2007.47 425.374L1995.36 424.076C1973.7 421.787 1952.34 417.245 1931.63 410.524L1914.91 404.325C1909.51 402.51 1904.21 400.392 1899.05 397.981C1888.96 393.223 1879.44 389.186 1871.51 385.005L1845.56 370.588L1839.79 380.824L1866.9 394.521C1874.97 398.558 1885.06 402.306 1895.73 406.92C1900.92 409.227 1906.69 410.813 1912.31 412.687L1929.47 418.454C1950.94 424.473 1972.97 428.29 1995.21 429.844L2007.61 430.564C2011.22 430.564 2014.53 430.564 2017.13 430.564H2025.49L2025.06 425.374Z" fill="white"/>
<path d="M2113.44 363.532C2116.9 358.774 2106.38 360.216 2093.4 363.532C2086.43 365.581 2079.63 368.184 2073.07 371.317C2069.9 373.191 2066.59 374.633 2063.7 376.652C2060.79 378.571 2058.17 380.902 2055.92 383.572C2053.32 386.744 2050.44 390.637 2047.56 394.818C2044.67 398.999 2041.79 403.468 2039.05 407.793C2036.31 412.119 2034 416.011 2032.13 418.606L2029.25 422.931C2042.29 424.689 2055.56 423.406 2068.03 419.183C2072.19 417.56 2076.15 415.481 2079.85 412.983C2082.87 410.491 2085.63 407.688 2088.07 404.621C2097.44 393.664 2101.33 379.103 2113.44 363.532Z" fill="white"/>
<path d="M2148.19 442.682C2142.58 442.936 2136.96 442.501 2131.46 441.384C2126.83 440.584 2122.26 439.476 2117.77 438.068C2109.55 435.617 2102.2 431.869 2094.7 429.706C2090.85 428.454 2086.89 427.585 2082.88 427.111C2078.13 426.222 2073.29 425.835 2068.46 425.958C2055.08 426.816 2041.78 428.647 2028.67 431.436C2032.46 436.613 2036.7 441.438 2041.36 445.854C2045.43 449.745 2049.77 453.357 2054.33 456.667C2058.72 460.036 2063.58 462.755 2068.75 464.74C2072.98 466.234 2077.39 467.156 2081.87 467.48C2086.9 468.055 2091.98 468.055 2097.01 467.48C2107.26 466.232 2117.3 463.614 2126.85 459.694C2145.31 451.62 2155.83 442.393 2148.19 442.682Z" fill="white"/>
<path d="M2115.45 359.785C2117.33 355.893 2119.49 351.856 2121.8 347.819C2124.1 343.782 2126.41 339.313 2129 334.987C2134.05 326.769 2139.24 317.11 2145.15 308.315C2157.3 288.625 2170.79 269.79 2185.52 251.943C2182.33 254.341 2179.43 257.099 2176.87 260.161C2173.99 263.27 2171.29 266.543 2168.8 269.965C2165.77 273.714 2162.45 277.75 2158.99 282.508C2141.66 306.6 2126.14 331.949 2112.57 358.344C2113.72 358.344 2115.02 358.488 2115.45 359.785Z" fill="white"/>
<path d="M2153.66 443.114C2154.38 444.267 2153.66 445.565 2152.22 446.574C2163.15 447.655 2174.16 447.655 2185.09 446.574C2190.42 446.574 2195.9 445.421 2201.09 444.556C2206.28 443.691 2211.33 442.537 2216.37 441.384L2230.79 437.347C2235.4 435.905 2239.87 434.319 2244.2 432.589C2252.38 429.558 2260.37 426.044 2268.13 422.065C2275.2 418.316 2281.83 414.712 2287.31 411.252C2292.79 407.791 2297.54 404.475 2301.72 401.592C2306.2 398.677 2310.31 395.241 2313.98 391.355C2288.83 410.183 2260.78 424.792 2230.93 434.608C2217.4 438.807 2203.5 441.704 2189.41 443.258C2182.88 444.027 2176.68 444.46 2170.81 444.556C2164.62 443.979 2158.85 443.69 2153.66 443.114Z" fill="white"/>
<path d="M2121.52 362.809C2117.71 371.967 2114.48 381.357 2111.86 390.922C2109.12 400.726 2106.81 408.367 2106.81 408.367C2114.16 406.972 2121.36 404.847 2128.29 402.024C2133.36 399.775 2138.19 397.022 2142.71 393.806C2149.44 388.741 2154.84 382.109 2158.42 374.487C2161.28 367.43 2163.55 360.149 2165.2 352.716C2167.46 344.031 2170.55 335.582 2174.43 327.486C2175.72 324.747 2173.71 324.17 2169.81 325.323C2164.35 327.317 2159.09 329.827 2154.1 332.82C2147.49 336.731 2141.18 341.116 2135.21 345.94C2132.27 348.373 2129.57 351.076 2127.14 354.014C2124.95 356.732 2123.06 359.681 2121.52 362.809Z" fill="white"/>
<path d="M2109.54 416.016C2114.63 419.509 2119.92 422.687 2125.4 425.531C2135.07 430.762 2145.55 434.321 2156.4 436.056C2160.8 436.691 2165.26 436.691 2169.66 436.056C2174.59 435.115 2179.41 433.715 2184.08 431.875C2193.37 428.334 2202.11 423.478 2210.03 417.458C2216.14 413.478 2221.63 408.62 2226.32 403.04C2229.35 399.292 2229.64 396.985 2226.32 397.85C2216.49 400.074 2206.36 400.658 2196.33 399.58C2187.68 398.715 2180.19 397.562 2172.26 396.985C2155.68 395.255 2140.25 399.724 2109.54 416.016Z" fill="white"/>
<path d="M2176.16 323.299C2178.61 315.226 2181.78 305.566 2185.67 296.051C2189.56 286.535 2193.89 275.722 2198.79 265.197C2208.92 243.474 2220.93 222.681 2234.69 203.059C2224.98 213.387 2216.78 225.036 2210.32 237.66C2194.83 264.703 2182.49 293.438 2173.56 323.299C2173.95 323.057 2174.4 322.928 2174.86 322.928C2175.32 322.928 2175.77 323.057 2176.16 323.299Z" fill="white"/>
<path d="M2230.22 400.438C2267.72 396.137 2303.71 383.154 2335.32 362.52C2349.82 353.909 2362.94 343.168 2374.25 330.658C2352.61 349.527 2328.32 365.119 2302.16 376.938C2289.85 382.576 2277.18 387.392 2264.24 391.355C2253.39 394.397 2242.3 396.472 2231.08 397.555C2231.66 397.987 2231.08 399.285 2230.22 400.438Z" fill="white"/>
<path d="M2237.15 273.85C2239.16 268.083 2228.64 273.85 2217.11 283.077C2204.24 292.573 2194.26 305.448 2188.27 320.274C2186.3 330.207 2185.14 340.285 2184.81 350.406V363.382V368.716C2191.52 365.334 2197.97 361.48 2204.13 357.182C2208.79 353.901 2213.05 350.078 2216.82 345.793C2222.57 339.53 2226.59 331.878 2228.49 323.59C2230.14 316.086 2231.25 308.473 2231.81 300.81C2232.44 291.634 2234.23 282.575 2237.15 273.85Z" fill="white"/>
<path d="M2189.13 376.075L2194.18 377.805C2197.35 378.814 2201.68 380.112 2206.72 381.265C2217.14 384.113 2227.94 385.329 2238.73 384.869C2256.8 380.976 2273.2 371.494 2285.58 357.765C2297.84 345.222 2304.33 333.976 2297.7 336.283C2288.43 339.67 2278.71 341.662 2268.86 342.194C2260.35 342.194 2252.57 342.194 2244.78 343.636C2236.28 344.805 2228.07 347.542 2220.56 351.709C2215.47 354.488 2210.65 357.721 2206.14 361.369C2200.19 365.937 2194.51 370.848 2189.13 376.075Z" fill="white"/>
<path d="M2238.01 269.536C2238.01 269.536 2239.31 261.03 2242.48 248.342C2244.21 242.143 2246.23 234.79 2248.68 226.572C2251.13 218.354 2254.3 210.136 2258.05 201.198C2264.3 184.079 2272.99 167.956 2283.86 153.332C2274.97 162.016 2267.78 172.284 2262.67 183.608C2248.86 210.505 2239.38 239.404 2234.55 269.248C2235.85 268.671 2237.15 268.383 2238.01 269.536Z" fill="white"/>
<path d="M2302.6 334.545C2303.61 335.41 2302.6 336.851 2302.6 338.149C2335.18 330.841 2365.88 316.796 2392.71 296.915C2403.87 289.394 2413.63 279.976 2421.54 269.09C2407.86 283.336 2392.12 295.438 2374.83 304.989C2366.35 310.356 2357.54 315.171 2348.45 319.407C2340.89 322.919 2333.14 325.999 2325.23 328.634C2317.8 331.008 2310.24 332.981 2302.6 334.545Z" fill="white"/>
<path d="M2249.11 266.067C2248.64 270.862 2248.64 275.69 2249.11 280.485C2249.11 285.531 2249.11 290.721 2249.97 294.902C2250.69 304.562 2251.85 312.347 2251.85 312.347C2257.74 308.236 2263.33 303.707 2268.57 298.795C2272.55 294.993 2276.13 290.789 2279.24 286.252C2283.91 279.611 2286.93 271.949 2288.04 263.905C2288.18 247.512 2289.72 231.161 2292.65 215.03C2294.38 208.975 2284.58 215.03 2273.91 225.843C2268.18 231.545 2263.06 237.826 2258.62 244.586C2253.93 250.972 2250.69 258.302 2249.11 266.067Z" fill="white"/>
<path d="M2258.47 320.563C2258.47 320.563 2266.11 322.149 2276.06 323.158C2280.96 323.158 2286.44 324.023 2291.92 324.023C2296.76 324.012 2301.59 323.529 2306.34 322.581C2314.43 320.57 2321.96 316.777 2328.4 311.48C2335.2 305.971 2341.47 299.841 2347.14 293.17C2357.38 280.482 2362.42 269.525 2356.51 272.12C2340.66 277.874 2324.14 281.557 2307.35 283.077C2299.3 284.975 2291.7 288.454 2285 293.314C2280.63 296.627 2276.53 300.291 2272.75 304.271C2267.69 309.436 2262.93 314.874 2258.47 320.563Z" fill="white"/>
<path d="M2292.35 211.135C2292.35 211.135 2293.36 203.061 2295.81 190.374C2299.29 174.282 2304.11 158.511 2310.23 143.23C2312.51 136.903 2315.11 130.696 2318.02 124.631C2323.3 114.322 2329.22 104.354 2335.75 94.7871C2327.04 103.751 2319.92 114.137 2314.7 125.496C2301.35 152.38 2292.91 181.43 2289.76 211.28C2290.13 211.015 2290.58 210.86 2291.04 210.835C2291.49 210.809 2291.95 210.914 2292.35 211.135Z" fill="white"/>
<path d="M2361.13 270.972C2362.14 270.972 2361.85 272.99 2361.13 274.288C2390.94 265.847 2418.9 251.911 2443.59 233.198C2453.67 226.211 2462.45 217.528 2469.55 207.535C2461.4 215.437 2452.83 222.896 2443.88 229.882C2437.97 234.207 2433.65 236.658 2426.87 240.839C2412.57 249.866 2397.47 257.541 2381.74 263.763C2369.49 268.665 2361.13 270.972 2361.13 270.972Z" fill="white"/>
<path d="M2308.51 255.544C2357.24 214.022 2333.45 197.875 2343.68 158.371C2346.71 146.693 2305.91 183.169 2303.32 210.129C2302.8 219.788 2303.48 229.473 2305.33 238.964C2306.78 248.191 2308.51 255.544 2308.51 255.544Z" fill="white"/>
<path d="M2406.11 210.268C2368.34 227.569 2349.74 207.673 2314.71 261.161C2314.71 261.161 2322.2 262.026 2331.72 262.315C2341.39 262.781 2351.08 262.005 2360.55 260.008C2388.24 252.655 2417.36 205.078 2406.11 210.268Z" fill="white"/>
<path d="M2344.27 154.038C2344.27 154.038 2344.27 145.82 2347.44 133.421C2350.7 117.368 2355.53 101.674 2361.86 86.5641C2368.38 69.0711 2377.78 52.7944 2389.68 38.4102C2386.65 40.6863 2383.97 43.4083 2381.75 46.4839C2376.4 53.6166 2371.58 61.1339 2367.34 68.9749C2353.17 95.3843 2344.39 124.349 2341.53 154.182C2341.92 153.887 2342.39 153.716 2342.88 153.69C2343.36 153.665 2343.85 153.786 2344.27 154.038Z" fill="white"/>
<path d="M2410.29 209.126C2411.45 209.126 2411.16 211 2410.29 212.298C2438.26 204.015 2464.67 191.154 2488.44 174.236C2494.96 169.722 2501.09 164.657 2506.75 159.098C2509.13 157.045 2511.22 154.667 2512.94 152.033C2500.78 163.335 2487.21 173.026 2472.58 180.868C2458.99 188.977 2444.76 195.969 2430.04 201.773C2418.22 206.819 2410.29 209.126 2410.29 209.126Z" fill="white"/>
<path d="M2357.24 145.4C2357.34 160.495 2359.37 175.516 2363.3 190.094C2375.45 179.15 2385.26 165.859 2392.13 151.022C2396.89 136.605 2391.12 116.997 2397.9 93.3528C2401.5 81.8189 2359.55 118.727 2357.24 145.4Z" fill="white"/>
<path d="M2370.79 196.859C2385.85 198.132 2401.02 197.453 2415.91 194.841C2442.15 187.344 2470.27 142.361 2459.16 147.119C2437.39 156.49 2417.21 154.039 2403.66 161.536C2390.33 170.861 2379.13 182.899 2370.79 196.859Z" fill="white"/>
<path d="M2399.92 153.894C2399.92 153.894 2407.12 151.731 2416.06 148.415C2425.14 145.245 2433.84 141.087 2442.02 136.016C2458.35 120.958 2468.6 100.445 2470.85 78.3466L2480.22 68.3986C2485.84 62.4874 2493.63 54.9904 2501.56 47.6375C2508.94 40.8744 2516.69 34.5211 2524.77 28.6065L2535.73 20.3887H2534.86H2535.58L2524.34 27.7415C2515.96 33.1731 2507.88 39.0444 2500.12 45.3307C2491.76 52.251 2483.39 59.7481 2477.34 64.7942L2467.53 74.0213C2456.23 75.7228 2445.38 79.6902 2435.64 85.6855C2425.91 91.6809 2417.48 99.5807 2410.87 108.911C2406.96 117.859 2404.15 127.252 2402.51 136.881C2400.78 146.397 2399.92 153.894 2399.92 153.894Z" fill="white"/>
<path d="M2396.89 89.4584C2397.31 89.3156 2397.77 89.3156 2398.19 89.4584C2397.66 77.5744 2399.73 65.7187 2404.24 54.7127C2411.69 34.5207 2423.06 15.9998 2437.69 0.214844C2434.63 2.55834 2431.83 5.21611 2429.33 8.14445C2424.04 14.5603 2419.22 21.3546 2414.91 28.473C2409.04 37.5154 2404.21 47.1874 2400.5 57.3078C2396.88 67.692 2395.03 78.6076 2395.02 89.6028C2395.62 89.3827 2396.26 89.3326 2396.89 89.4584Z" fill="white"/>
<path d="M2463.64 149.567C2473.9 148.523 2483.95 145.998 2493.48 142.07C2501.96 138.748 2510.16 134.746 2517.99 130.104C2523.78 126.815 2529.33 123.104 2534.57 119.002C2538.47 116.119 2540.77 114.1 2540.77 113.523C2531.4 119.723 2525.2 124.481 2520.01 127.941C2514.82 131.401 2510.64 132.554 2505.59 135.15C2499.91 137.924 2494.03 140.285 2488 142.214C2483.67 143.782 2479.24 145.083 2474.74 146.107C2470.91 147.012 2467 147.495 2463.06 147.548C2463.93 147.404 2463.93 148.413 2463.64 149.567Z" fill="white"/>
<path d="M4490 1413.25H4372.79L4291.62 1182.57H3933.78L3852.61 1413.25H3740.87L4042.05 585.695H4188.82L4490 1413.25ZM4257.74 1088.14L4112.7 681.859L3967.08 1088.14H4257.74Z" fill="white"/>
</svg>
