<svg width="64" height="64" viewBox="0 0 64 64" fill="none" xmlns="http://www.w3.org/2000/svg">
<rect x="0.32431" width="63.5676" height="63.5676" rx="31.7838" fill="#48C95F"/>
<path d="M44.7053 19.1696C41.5657 16.0409 37.3795 14.3027 32.9608 14.3027C23.7745 14.3027 16.3325 21.7189 16.3325 30.8733C16.3325 33.7703 17.1464 36.6673 18.5418 39.1007L16.2162 47.6757L25.0536 45.3581C27.4956 46.6328 30.17 47.3281 32.9608 47.3281C42.1471 47.3281 49.5892 39.9119 49.5892 30.7575C49.4729 26.47 47.8449 22.2983 44.7053 19.1696ZM40.9843 36.7831C40.6354 37.7102 39.0075 38.6372 38.1935 38.7531C37.4958 38.8689 36.5656 38.8689 35.6353 38.6372C35.0539 38.4054 34.2399 38.1737 33.3097 37.7102C29.1235 35.972 26.449 31.8004 26.2165 31.4527C25.9839 31.221 24.4722 29.251 24.4722 27.1652C24.4722 25.0794 25.5188 24.1524 25.8676 23.6889C26.2164 23.2254 26.6816 23.2254 27.0304 23.2254C27.263 23.2254 27.6118 23.2254 27.8444 23.2254C28.077 23.2254 28.4258 23.1095 28.7747 23.9206C29.1235 24.7318 29.9375 26.8176 30.0538 26.9335C30.17 27.1652 30.17 27.397 30.0538 27.6287C29.9375 27.8605 29.8212 28.0923 29.5886 28.324C29.3561 28.5558 29.1235 28.9034 29.0072 29.0193C28.7747 29.251 28.5421 29.4828 28.7747 29.8304C29.0072 30.2939 29.8212 31.5686 31.1003 32.7274C32.7282 34.1179 34.0074 34.5814 34.4725 34.8132C34.9376 35.045 35.1702 34.9291 35.4027 34.6973C35.6353 34.4656 36.4493 33.5385 36.6818 33.075C36.9144 32.6115 37.2632 32.7274 37.6121 32.8433C37.9609 32.9592 40.054 34.0021 40.4029 34.2338C40.868 34.4656 41.1006 34.5814 41.2168 34.6973C41.3331 35.045 41.3331 35.8561 40.9843 36.7831Z" fill="white"/>
</svg>
