<svg width="64" height="64" viewBox="0 0 64 64" fill="none" xmlns="http://www.w3.org/2000/svg">
<rect x="0.432434" width="63.5676" height="63.5676" rx="31.7838" fill="#7C509A"/>
<path d="M42.1549 15.1703C36.0977 14.0135 29.8075 14.0135 23.7503 15.1703C21.0711 15.7487 17.693 18.9876 17.1106 21.5324C16.0622 26.5064 16.0622 31.5961 17.1106 36.5701C17.8095 39.115 21.1876 42.3538 23.7503 42.9322C23.8667 42.9322 23.9832 43.0479 23.9832 43.1636V50.4511C23.9832 50.7981 24.4492 51.0294 24.6821 50.6824L28.1767 47.0965C28.1767 47.0965 30.9723 44.2046 31.4383 43.7419C31.4383 43.7419 31.5548 43.6263 31.6713 43.6263C35.1658 43.7419 38.7768 43.3949 42.2714 42.8165C44.9505 42.2382 48.3286 38.9993 48.911 36.4544C49.9594 31.4804 49.9594 26.3907 48.911 21.4167C48.2121 18.9876 44.8341 15.7487 42.1549 15.1703ZM42.2714 36.9171C41.689 38.0739 40.9901 38.9993 39.8252 39.5777C39.4757 39.6933 39.1263 39.809 38.7768 39.9247C38.3109 39.809 37.9614 39.6933 37.612 39.5777C33.8845 38.0739 30.3899 35.9917 27.5943 32.9842C26.08 31.2491 24.7986 29.2826 23.7503 27.2005C23.2843 26.1594 22.8184 25.234 22.4689 24.1929C22.1195 23.2675 22.7019 22.3421 23.2843 21.6481C23.8667 20.954 24.5657 20.4913 25.3811 20.1443C25.9635 19.7973 26.5459 20.0286 27.0118 20.4913C27.9437 21.6481 28.8756 22.8048 29.5745 24.0772C30.0405 24.887 29.924 25.8124 29.1086 26.3907C28.8756 26.5064 28.7591 26.6221 28.5261 26.8534C28.4097 26.9691 28.1767 27.0848 28.0602 27.3161C27.8272 27.6632 27.8272 28.0102 27.9437 28.3572C28.8756 31.0177 30.6229 33.0999 33.302 34.2566C33.768 34.488 34.1174 34.6036 34.6999 34.6036C35.5153 34.488 35.8647 33.5626 36.4471 33.0999C37.0296 32.6372 37.7285 32.6372 38.4274 32.9842C39.0098 33.3312 39.5922 33.7939 40.2911 34.2566C40.8736 34.7193 41.456 35.0663 42.0384 35.529C42.3879 35.7604 42.5044 36.3388 42.2714 36.9171ZM37.379 28.2415C37.146 28.2415 37.2625 28.2415 37.379 28.2415C36.9131 28.2415 36.7966 28.0102 36.6801 27.6632C36.6801 27.4318 36.6801 27.0848 36.5636 26.8534C36.4471 26.3907 36.2142 25.928 35.7482 25.581C35.5153 25.4653 35.2823 25.3497 35.0493 25.234C34.6999 25.1183 34.4669 25.1183 34.1174 25.1183C33.768 25.0026 33.6515 24.7713 33.6515 24.4243C33.6515 24.1929 34.0009 23.9616 34.2339 23.9616C36.0977 24.0772 37.4955 25.1183 37.7285 27.3161C37.7285 27.4318 37.7285 27.6632 37.7285 27.7788C37.7285 28.0102 37.612 28.2415 37.379 28.2415ZM36.2142 23.1518C35.6317 22.9205 35.0493 22.6891 34.3504 22.5735C34.1174 22.5735 33.768 22.4578 33.535 22.4578C33.1856 22.4578 32.9526 22.2265 33.0691 21.8794C33.0691 21.5324 33.302 21.3011 33.6515 21.4167C34.8163 21.5324 35.8647 21.7638 36.9131 22.2265C39.0098 23.2675 40.1747 25.0026 40.5241 27.3161C40.5241 27.4318 40.5241 27.5475 40.5241 27.6632C40.5241 27.8945 40.5241 28.1259 40.5241 28.4729C40.5241 28.5886 40.5241 28.7042 40.5241 28.8199C40.4076 29.2826 39.5922 29.3983 39.4757 28.8199C39.4757 28.7042 39.3593 28.4729 39.3593 28.3572C39.3593 27.3161 39.1263 26.2751 38.6604 25.3497C37.9614 24.3086 37.146 23.6145 36.2142 23.1518ZM42.5044 30.0923C42.1549 30.0923 41.9219 29.7453 41.9219 29.3983C41.9219 28.7042 41.8055 28.0102 41.689 27.3161C41.223 23.6145 38.1944 20.607 34.5834 20.0286C34.001 19.913 33.4185 19.913 32.9526 19.7973C32.6031 19.7973 32.1372 19.7973 32.0207 19.3346C31.9042 18.9876 32.2537 18.6405 32.6031 18.6405C32.7196 18.6405 32.8361 18.6405 32.8361 18.6405C33.0691 18.6405 37.612 18.7562 32.8361 18.6405C37.7285 18.7562 41.8054 21.9951 42.6208 26.8534C42.7373 27.6632 42.8538 28.4729 42.8538 29.3983C43.0868 29.7453 42.8538 30.0923 42.5044 30.0923Z" fill="white"/>
</svg>
